<svg data-v-423bf9ae="" xmlns="http://www.w3.org/2000/svg" viewBox="0 0 272.6492823541427 60" class="font"><!----><!----><!----><g data-v-423bf9ae="" id="1c65fcf4-e6e5-42da-8bd8-055b9b3275da" fill="black" transform="matrix(3.7313432693481445,0,0,3.7313432693481445,-3.1343228816986084,-15.447762489318848)"><path d="M4.52 15.64L4.52 15.64L4.52 15.64Q2.97 15.64 1.90 14.38L1.90 14.38L1.90 14.38Q0.84 13.12 0.84 10.71L0.84 10.71L0.84 10.71Q0.84 8.93 1.41 7.47L1.41 7.47L1.41 7.47Q1.99 6.01 3.21 5.08L3.21 5.08L3.21 5.08Q4.44 4.14 5.98 4.14L5.98 4.14L5.98 4.14Q7.52 4.14 8.22 4.89L8.22 4.89L8.22 4.89Q8.92 5.64 8.92 6.61L8.92 6.61L8.92 6.61Q8.92 7.57 8.43 8.16L8.43 8.16L8.43 8.16Q7.94 8.74 7.15 8.74L7.15 8.74L7.15 8.74Q6.90 8.74 6.54 8.62L6.54 8.62L6.54 8.62Q6.86 8.29 7.11 7.68L7.11 7.68L7.11 7.68Q7.35 7.07 7.35 6.45L7.35 6.45L7.35 6.45Q7.35 5.84 7.02 5.40L7.02 5.40L7.02 5.40Q6.69 4.96 5.98 4.96L5.98 4.96L5.98 4.96Q4.90 4.96 4.05 5.85L4.05 5.85L4.05 5.85Q3.21 6.73 2.78 8.03L2.78 8.03L2.78 8.03Q2.35 9.32 2.35 10.70L2.35 10.70L2.35 10.70Q2.35 12.63 3.09 13.59L3.09 13.59L3.09 13.59Q3.84 14.55 5.01 14.55L5.01 14.55L5.01 14.55Q5.80 14.55 6.62 14.07L6.62 14.07L6.62 14.07Q7.45 13.59 7.98 12.70L7.98 12.70L7.98 12.70Q8.19 12.70 8.37 12.82L8.37 12.82L8.37 12.82Q8.55 12.95 8.55 13.08L8.55 13.08L8.55 13.08Q7.77 14.56 6.58 15.13L6.58 15.13L6.58 15.13Q5.54 15.64 4.52 15.64ZM16.56 8.32L16.56 8.32L16.56 8.32Q16.56 8.81 16.14 9.67L16.14 9.67L16.14 9.67Q15.72 10.54 15.12 11.58L15.12 11.58L15.12 11.58Q14.52 12.61 13.92 13.78L13.92 13.78L13.92 13.78Q13.31 14.95 12.89 16.35L12.89 16.35L12.89 16.35Q12.47 17.74 12.47 19.01L12.47 19.01L12.47 19.01Q12.47 19.64 12.57 20.22L12.57 20.22L12.57 20.22Q11.68 20.01 11.36 19.59L11.36 19.59L11.36 19.59Q11.05 19.18 11.05 18.62L11.05 18.62L11.05 18.62Q11.05 17.82 12.03 15.58L12.03 15.58L12.03 15.58Q11.82 14.71 11.51 12.86L11.51 12.86L11.51 12.86Q11.20 11.00 10.88 9.63L10.88 9.63L10.88 9.63Q10.57 8.26 10.16 7.59L10.16 7.59L10.16 7.59Q10.70 7.22 11.07 7.22L11.07 7.22L11.07 7.22Q11.80 7.22 12.07 7.97L12.07 7.97L12.07 7.97Q12.33 8.72 12.54 10.84L12.54 10.84L12.54 10.84Q12.74 12.95 12.95 13.94L12.95 13.94L12.95 13.94Q15.69 8.78 15.69 7.04L15.69 7.04L15.69 7.04Q16.56 7.63 16.56 8.32ZM19.94 9.95L19.94 9.95L19.94 9.95Q19.53 10.65 19.31 11.39L19.31 11.39L19.31 11.39Q19.10 12.12 19.10 12.80L19.10 12.80L19.10 12.80Q19.10 13.47 19.40 13.94L19.40 13.94L19.40 13.94Q19.70 14.41 20.26 14.41L20.26 14.41L20.26 14.41Q21.04 14.41 21.73 13.55L21.73 13.55L21.73 13.55Q22.41 12.68 22.79 11.46L22.79 11.46L22.79 11.46Q23.16 10.23 23.16 9.19L23.16 9.19L23.16 9.19Q23.16 8.15 23.07 7.48L23.07 7.48L23.07 7.48Q23.41 7.45 23.49 7.45L23.49 7.45L23.49 7.45Q24.68 7.45 24.68 8.67L24.68 8.67L24.68 8.67Q24.68 8.93 24.35 10.83L24.35 10.83L24.35 10.83Q24.01 12.73 24.01 13.87L24.01 13.87L24.01 13.87Q24.01 15.01 24.44 15.89L24.44 15.89L24.44 15.89Q23.56 15.71 23.16 15.11L23.16 15.11L23.16 15.11Q22.76 14.52 22.76 13.40L22.76 13.40L22.76 13.40Q22.76 13.20 22.82 12.64L22.82 12.64L22.82 12.64Q22.44 13.97 21.49 14.78L21.49 14.78L21.49 14.78Q20.54 15.60 19.62 15.60L19.62 15.60L19.62 15.60Q18.70 15.60 18.14 14.90L18.14 14.90L18.14 14.90Q17.58 14.21 17.58 12.99L17.58 12.99L17.58 12.99Q17.58 11.76 18.04 10.59L18.04 10.59L18.04 10.59Q18.49 9.42 19.41 8.57L19.41 8.57L19.41 8.57Q20.33 7.71 21.46 7.71L21.46 7.71L21.46 7.71Q21.95 7.71 22.54 7.91L22.54 7.91L22.54 7.91Q21.71 8.12 21.03 8.68L21.03 8.68L21.03 8.68Q20.34 9.24 19.94 9.95ZM33.33 9.34L33.33 9.34L33.33 9.34Q33.33 9.98 33.06 11.61L33.06 11.61L33.06 11.61Q32.79 13.24 32.79 13.99L32.79 13.99L32.79 13.99Q32.79 14.73 32.97 15.06L32.97 15.06L32.97 15.06Q33.15 15.39 33.59 15.62L33.59 15.62L33.59 15.62Q33.40 15.64 33.07 15.64L33.07 15.64L33.07 15.64Q32.12 15.64 31.72 15.28L31.72 15.28L31.72 15.28Q31.32 14.92 31.32 14L31.32 14L31.32 14Q31.32 13.48 31.60 11.91L31.60 11.91L31.60 11.91Q31.88 10.33 31.88 9.59L31.88 9.59L31.88 9.59Q31.88 8.67 31.32 8.67L31.32 8.67L31.32 8.67Q30.42 8.67 29.46 10.25L29.46 10.25L29.46 10.25Q28.50 11.83 28.50 14.06L28.50 14.06L28.50 14.06Q28.50 14.94 28.59 15.43L28.59 15.43L28.59 15.43Q28.22 15.46 28.15 15.46L28.15 15.46L28.15 15.46Q26.92 15.46 26.92 14.25L26.92 14.25L26.92 14.25Q26.92 13.97 27.22 12.10L27.22 12.10L27.22 12.10Q27.51 10.22 27.51 9.11L27.51 9.11L27.51 9.11Q27.51 7.99 27.27 7.06L27.27 7.06L27.27 7.06Q28.10 7.38 28.43 7.97L28.43 7.97L28.43 7.97Q28.76 8.57 28.76 9.33L28.76 9.33L28.76 9.33Q28.76 10.09 28.59 11.10L28.59 11.10L28.59 11.10Q29.05 9.52 30.04 8.44L30.04 8.44L30.04 8.44Q31.02 7.35 31.88 7.35L31.88 7.35L31.88 7.35Q33.33 7.35 33.33 9.34ZM40.85 10.83L40.85 10.83L40.85 10.83Q40.85 9.46 40.51 8.87L40.51 8.87L40.51 8.87Q40.17 8.27 39.53 8.27L39.53 8.27L39.53 8.27Q38.89 8.27 38.25 8.90L38.25 8.90L38.25 8.90Q37.60 9.52 37.23 10.44L37.23 10.44L37.23 10.44Q36.86 11.35 36.86 12.34L36.86 12.34L36.86 12.34Q36.86 13.33 37.24 14.05L37.24 14.05L37.24 14.05Q37.62 14.77 38.39 14.77L38.39 14.77L38.39 14.77Q39.48 14.77 40.17 13.48L40.17 13.48L40.17 13.48Q40.85 12.19 40.85 10.83ZM36.79 10.29L36.79 10.29Q37.32 8.78 38.23 8.09L38.23 8.09L38.23 8.09Q39.13 7.39 40.06 7.39L40.06 7.39L40.06 7.39Q40.99 7.39 41.61 8.21L41.61 8.21L41.61 8.21Q42.22 9.03 42.22 10.43L42.22 10.43L42.22 10.43Q42.22 11.97 41.64 13.29L41.64 13.29L41.64 13.29Q40.98 14.74 39.73 15.32L39.73 15.32L39.73 15.32Q39.06 15.64 38.25 15.64L38.25 15.64L38.25 15.64Q37.11 15.64 36.26 14.69L36.26 14.69L36.26 14.69Q35.41 13.75 35.41 11.99L35.41 11.99L35.41 11.99Q35.41 10.23 36.16 8.95L36.16 8.95L36.16 8.95Q36.92 7.66 38.22 7.15L38.22 7.15L38.22 7.15Q38.50 7.15 38.50 7.43L38.50 7.43L38.50 7.43Q37.11 8.34 36.79 10.29L36.79 10.29ZM46.65 8.73L46.65 8.73L46.65 8.73Q46.10 9.38 45.83 10.33L45.83 10.33L45.83 10.33Q45.56 11.27 45.56 12.35L45.56 12.35L45.56 12.35Q45.56 13.43 45.92 14.08L45.92 14.08L45.92 14.08Q46.28 14.74 46.89 14.74L46.89 14.74L46.89 14.74Q47.50 14.74 48.09 14.38L48.09 14.38L48.09 14.38Q48.68 14.01 49.08 13.37L49.08 13.37L49.08 13.37Q49.60 13.44 49.60 13.75L49.60 13.75L49.60 13.75Q49.22 14.45 48.66 14.90L48.66 14.90L48.66 14.90Q48.09 15.34 47.60 15.49L47.60 15.49L47.60 15.49Q47.11 15.64 46.61 15.64L46.61 15.64L46.61 15.64Q45.53 15.64 44.79 14.79L44.79 14.79L44.79 14.79Q44.04 13.94 44.04 12.33L44.04 12.33L44.04 12.33Q44.04 10.29 45.15 8.82L45.15 8.82L45.15 8.82Q46.26 7.35 48.09 7.35L48.09 7.35L48.09 7.35Q49.10 7.35 49.62 7.88L49.62 7.88L49.62 7.88Q50.13 8.40 50.13 9.09L50.13 9.09L50.13 9.09Q50.13 9.79 49.75 10.28L49.75 10.28L49.75 10.28Q49.36 10.77 48.76 10.77L48.76 10.77L48.76 10.77Q48.38 10.77 48.12 10.64L48.12 10.64L48.12 10.64Q48.34 10.39 48.50 9.93L48.50 9.93L48.50 9.93Q48.66 9.48 48.66 9.04L48.66 9.04L48.66 9.04Q48.66 8.08 47.87 8.08L47.87 8.08L47.87 8.08Q47.19 8.08 46.65 8.73ZM53.62 15.64L53.62 15.64Q52.82 15.36 52.51 14.78L52.51 14.78L52.51 14.78Q52.19 14.20 52.19 13.37L52.19 13.37L52.19 13.37Q52.19 12.54 52.42 11.00L52.42 11.00L52.42 11.00Q52.64 9.46 52.64 8.61L52.64 8.61L52.64 8.61Q52.64 7.76 52.56 7.29L52.56 7.29L52.56 7.29Q52.81 7.27 52.96 7.27L52.96 7.27L52.96 7.27Q53.59 7.27 53.87 7.55L53.87 7.55L53.87 7.55Q54.15 7.83 54.15 8.47L54.15 8.47L54.15 8.47Q54.15 8.68 53.81 10.68L53.81 10.68L53.81 10.68Q53.47 12.67 53.46 13.96L53.46 13.96L53.46 13.96Q53.45 15.26 53.62 15.64L53.62 15.64ZM53.83 5.88L53.83 5.88L53.83 5.88Q52.65 5.88 52.65 5.08L52.65 5.08L52.65 5.08Q52.65 4.80 52.86 4.30L52.86 4.30L52.86 4.30Q53.17 4.24 53.40 4.24L53.40 4.24L53.40 4.24Q54.57 4.24 54.57 5.04L54.57 5.04L54.57 5.04Q54.57 5.32 54.36 5.82L54.36 5.82L54.36 5.82Q54.05 5.88 53.83 5.88ZM60.80 7.76L60.80 7.76L60.80 7.76Q60.80 8.34 60.58 8.57L60.58 8.57L60.58 8.57Q60.35 8.79 59.92 8.79L59.92 8.79L58.91 8.79L58.91 8.79Q58.86 9.16 58.62 10.53L58.62 10.53L58.62 10.53Q58.14 13.13 58.14 14.46L58.14 14.46L58.14 14.46Q58.14 15.79 58.34 16.23L58.34 16.23L58.34 16.23Q57.54 15.93 57.20 15.34L57.20 15.34L57.20 15.34Q56.87 14.74 56.87 13.89L56.87 13.89L56.87 13.89Q56.87 13.03 56.97 12.27L56.97 12.27L56.97 12.27Q57.08 11.51 57.27 10.49L57.27 10.49L57.27 10.49Q57.47 9.46 57.55 8.85L57.55 8.85L57.55 8.85Q56.76 8.96 55.99 9.30L55.99 9.30L55.99 9.30Q55.96 9.07 55.96 8.89L55.96 8.89L55.96 8.89Q55.96 8.22 56.41 7.99L56.41 7.99L56.41 7.99Q56.85 7.76 57.69 7.76L57.69 7.76L57.69 7.76Q57.79 6.72 57.79 6.21L57.79 6.21L57.79 6.21Q57.79 5.70 57.78 5.39L57.78 5.39L57.78 5.39Q57.78 5.08 57.78 4.93L57.78 4.93L57.78 4.93Q58.42 5.03 58.77 5.50L58.77 5.50L58.77 5.50Q59.12 5.96 59.12 6.78L59.12 6.78L59.12 6.78Q59.12 7.20 59.05 7.80L59.05 7.80L59.05 7.80Q60.27 7.80 60.77 7.39L60.77 7.39L60.77 7.39Q60.80 7.59 60.80 7.76ZM66.21 7.76L66.21 7.76L66.21 7.76Q66.21 8.34 65.98 8.57L65.98 8.57L65.98 8.57Q65.76 8.79 65.32 8.79L65.32 8.79L64.32 8.79L64.32 8.79Q64.26 9.16 64.02 10.53L64.02 10.53L64.02 10.53Q63.55 13.13 63.55 14.46L63.55 14.46L63.55 14.46Q63.55 15.79 63.74 16.23L63.74 16.23L63.74 16.23Q62.94 15.93 62.61 15.34L62.61 15.34L62.61 15.34Q62.27 14.74 62.27 13.89L62.27 13.89L62.27 13.89Q62.27 13.03 62.38 12.27L62.38 12.27L62.38 12.27Q62.48 11.51 62.68 10.49L62.68 10.49L62.68 10.49Q62.87 9.46 62.96 8.85L62.96 8.85L62.96 8.85Q62.16 8.96 61.39 9.30L61.39 9.30L61.39 9.30Q61.36 9.07 61.36 8.89L61.36 8.89L61.36 8.89Q61.36 8.22 61.81 7.99L61.81 7.99L61.81 7.99Q62.26 7.76 63.10 7.76L63.10 7.76L63.10 7.76Q63.20 6.72 63.20 6.21L63.20 6.21L63.20 6.21Q63.20 5.70 63.19 5.39L63.19 5.39L63.19 5.39Q63.18 5.08 63.18 4.93L63.18 4.93L63.18 4.93Q63.83 5.03 64.18 5.50L64.18 5.50L64.18 5.50Q64.53 5.96 64.53 6.78L64.53 6.78L64.53 6.78Q64.53 7.20 64.46 7.80L64.46 7.80L64.46 7.80Q65.67 7.80 66.18 7.39L66.18 7.39L66.18 7.39Q66.21 7.59 66.21 7.76ZM69.16 9.95L69.16 9.95L69.16 9.95Q68.75 10.65 68.54 11.39L68.54 11.39L68.54 11.39Q68.32 12.12 68.32 12.80L68.32 12.80L68.32 12.80Q68.32 13.47 68.62 13.94L68.62 13.94L68.62 13.94Q68.92 14.41 69.48 14.41L69.48 14.41L69.48 14.41Q70.27 14.41 70.95 13.55L70.95 13.55L70.95 13.55Q71.64 12.68 72.01 11.46L72.01 11.46L72.01 11.46Q72.38 10.23 72.38 9.19L72.38 9.19L72.38 9.19Q72.38 8.15 72.30 7.48L72.30 7.48L72.30 7.48Q72.63 7.45 72.72 7.45L72.72 7.45L72.72 7.45Q73.91 7.45 73.91 8.67L73.91 8.67L73.91 8.67Q73.91 8.93 73.57 10.83L73.57 10.83L73.57 10.83Q73.23 12.73 73.23 13.87L73.23 13.87L73.23 13.87Q73.23 15.01 73.67 15.89L73.67 15.89L73.67 15.89Q72.79 15.71 72.39 15.11L72.39 15.11L72.39 15.11Q71.99 14.52 71.99 13.40L71.99 13.40L71.99 13.40Q71.99 13.20 72.04 12.64L72.04 12.64L72.04 12.64Q71.67 13.97 70.71 14.78L70.71 14.78L70.71 14.78Q69.76 15.60 68.84 15.60L68.84 15.60L68.84 15.60Q67.93 15.60 67.37 14.90L67.37 14.90L67.37 14.90Q66.81 14.21 66.81 12.99L66.81 12.99L66.81 12.99Q66.81 11.76 67.26 10.59L67.26 10.59L67.26 10.59Q67.72 9.42 68.63 8.57L68.63 8.57L68.63 8.57Q69.55 7.71 70.69 7.71L70.69 7.71L70.69 7.71Q71.18 7.71 71.76 7.91L71.76 7.91L71.76 7.91Q70.94 8.12 70.25 8.68L70.25 8.68L70.25 8.68Q69.57 9.24 69.16 9.95Z"></path></g><!----><!----></svg>